<svg width="50" height="50" viewBox="0 0 50 50" fill="none" xmlns="http://www.w3.org/2000/svg">
<path d="M25.009 1.98206C12.322 1.98206 2 12.3041 2 24.9911C2 37.6781 12.322 48.0001 25.009 48.0001C37.696 48.0001 48.018 37.6791 48.018 24.9911C48.018 12.3031 37.696 1.98206 25.009 1.98206ZM34.748 35.3331C34.459 35.7671 33.983 36.0011 33.498 36.0011C33.212 36.0011 32.923 35.9201 32.667 35.7491C30.194 34.1001 26 33.0001 22.5 33.0011C18.786 33.0031 16.002 33.9151 15.974 33.9241C15.19 34.1901 14.339 33.7621 14.077 32.9761C13.815 32.1901 14.24 31.3401 15.026 31.0791C15.158 31.0351 18.305 30.0041 22.5 30.0021C26 30.0001 30.868 30.9441 34.332 33.2531C35.022 33.7131 35.208 34.6441 34.748 35.3331ZM37.74 29.1931C37.415 29.7151 36.854 30.0021 36.281 30.0021C35.971 30.0021 35.657 29.9191 35.375 29.7421C30.891 26.9481 26.283 26.3571 22.313 26.3921C17.831 26.4321 14.247 27.2871 14.186 27.3051C13.279 27.5631 12.325 27.0331 12.066 26.1221C11.807 25.2091 12.338 24.2601 13.25 24.0021C13.527 23.9231 17.104 23.0431 22.001 23.0021C26.466 22.9651 32.03 23.6121 37.192 26.8281C37.995 27.3281 38.242 28.3881 37.74 29.1931ZM40.725 22.0131C40.352 22.6471 39.684 23.0001 38.998 23.0001C38.654 23.0001 38.306 22.9111 37.987 22.7251C32.761 19.6571 26.407 19.0061 21.997 19.0001C21.976 19.0001 21.955 19.0001 21.934 19.0001C16.601 19.0001 12.494 19.9381 12.453 19.9481C11.375 20.1951 10.302 19.5291 10.052 18.4531C9.802 17.3781 10.469 16.3041 11.544 16.0531C11.729 16.0101 16.117 15.0001 21.934 15.0001C21.957 15.0001 21.98 15.0001 22.003 15.0001C26.908 15.0071 34.014 15.7531 40.013 19.2751C40.965 19.8351 41.284 21.0611 40.725 22.0131Z" fill="#73E251"/>
</svg>
